<svg data-v-0dd9719b="" version="1.0" xmlns="http://www.w3.org/2000/svg" xmlns:xlink="http://www.w3.org/1999/xlink" width="100%" height="100%" viewBox="0 0 340.000000 250.000000" preserveAspectRatio="xMidYMid meet" color-interpolation-filters="sRGB" style="margin: auto;">
    <rect data-v-0dd9719b="" x="0" y="0" width="100%" height="100%" fill="#073763" fill-opacity="1" class="background"></rect>
    <rect data-v-0dd9719b="" x="0" y="0" width="100%" height="100%" fill="url(#watermark)" fill-opacity="1" class="watermarklayer"></rect>
    <g data-v-0dd9719b="" fill="#ddc36c" class="singlesvg" transform="translate(23.86456298828125,72.53326797485352)">
        <g class="tp-name"><g>
            <rect fill-opacity="0" stroke="#ddc36c" stroke-width="2" x="0" y="0" height="56.0541" width="56.0541"></rect>
            <g data-gra="path-name" transform="translate(8.076186255033377,3)">
                <g transform="scale(1.46)">
                    <path d="M3.71-32.87L3.71-13.20C3.71-12.87 3.76-9.72 5.35-6.53C7.61-2.02 11.88 0.47 17.38 0.47C22.87 0.47 27.15-2.02 29.40-6.53C31.00-9.72 31.04-12.87 31.04-13.20L31.04-32.87ZM24.42-8.83C23.11-6.25 20.81-5.03 17.38-5.03C14.00-5.03 11.69-6.25 10.33-8.83C9.20-10.94 9.16-13.20 9.16-13.20L9.16-27.38L25.60-27.38L25.60-13.24C25.60-13.20 25.55-10.94 24.42-8.83Z" transform="translate(-3.7101518026565463, 33.81404174573055)"></path>
                </g>
            </g>
        </g>
        <g transform="translate(59.0541,0)" mask="url(#1bbe4333-b699-4f88-81e4-a0ce57f7fab4)">
            <rect data-gra="graph-name" stroke="#ddc36c" stroke-width="2" x="0" y="0" height="56.0541" width="56.0541"></rect>
            <g data-gra="path-name" fill="#073763" transform="translate(15.135285452421073,3)">
                <g transform="scale(1.46)">
                    <path d="M9.20-5.49L9.20-32.87L3.71-32.87L3.71 0L21.37 0L21.37-5.49Z" transform="translate(-3.7101518026565463, 33.81404174573055)"></path>
                </g>
            </g>
        </g>
        <g transform="translate(118.10834914611007,0)">
            <rect fill-opacity="0" stroke="#ddc36c" stroke-width="2" x="0" y="0" height="56.0541" width="56.0541"></rect>
            <g data-gra="path-name" transform="translate(13.974586561735038,3)">
                <g transform="scale(1.46)">
                    <path d="M20.19-32.87L0.94-32.87L0.94-27.85L7.84-27.85L7.84 0L13.29 0L13.29-27.85L20.19-27.85Z" transform="translate(-0.9392789373814041, 33.81404174573055)"></path>
                </g>
            </g>
        </g>
        <g transform="translate(177.1625237191651,0)" mask="url(#86e2fbdc-4839-49c4-a62c-d3f90cc78cbc)">
            <rect data-gra="graph-name" stroke="#ddc36c" stroke-width="2" x="0" y="0" height="56.0541" width="56.0541"></rect>
            <g data-gra="path-name" fill="#073763" transform="translate(10.78448779922283,3)">
                <g transform="scale(1.46)">
                    <path d="M27.38 0L18.46-14.28C21.65-15.17 25.69-17.47 25.69-23.29C25.69-32.87 14.70-32.87 14.70-32.87L3.76-32.87L3.76-27.38L8.97-19.16L3.76-19.16L3.76 0L9.25 0L9.25-13.71L12.40-13.71L20.95 0ZM10.29-27.38L14.70-27.38C14.70-27.38 20.19-27.38 20.19-23.29C20.19-20.05 16.86-19.35 15.40-19.21Z" transform="translate(-3.7571157495256164, 33.81404174573055)"></path>
                </g>
            </g>
        </g>
        <g transform="translate(236.21669829222014,0)">
            <rect fill-opacity="0" stroke="#ddc36c" stroke-width="2" x="0" y="0" height="56.0541" width="56.0541"></rect>
                <g data-gra="path-name" transform="translate(8.864586905057791,3)">
                    <g transform="scale(1.46)">
                        <path d="M20.34 0L26.25 0L13.10-33.81L0 0L5.92 0L7.33-3.80L18.88-3.80ZM13.10-19.96L17.09-8.55L9.11-8.55Z" transform="translate(0, 33.81404174573055)"></path>
                    </g>
                </g>
            </g>
        </g>
        <g data-gra="path-slogan" fill-rule="" class="tp-slogan" fill="#ddc36c" transform="translate(58.737335205078125,61.054176330566406)">
            <g transform="scale(1, 1)">
                <g transform="scale(5.38)">
                    <path d="M1.10-1.72L0.50-1.02C0.85-0.66 1.26-0.38 1.73-0.17C2.20 0.04 2.71 0.14 3.26 0.14C3.68 0.14 4.05 0.09 4.38-0.03C4.71-0.15 4.99-0.31 5.22-0.51C5.45-0.71 5.63-0.95 5.75-1.22C5.88-1.50 5.94-1.79 5.94-2.10C5.94-2.39 5.90-2.64 5.81-2.86C5.73-3.08 5.62-3.27 5.47-3.44C5.33-3.60 5.16-3.75 4.96-3.87C4.76-3.99 4.54-4.10 4.32-4.20L3.20-4.68C3.04-4.74 2.89-4.81 2.74-4.89C2.58-4.97 2.44-5.05 2.32-5.15C2.19-5.25 2.09-5.37 2.01-5.50C1.93-5.63 1.90-5.80 1.90-5.99C1.90-6.35 2.03-6.63 2.30-6.83C2.57-7.04 2.92-7.14 3.36-7.14C3.73-7.14 4.06-7.07 4.35-6.94C4.64-6.81 4.91-6.63 5.15-6.40L5.69-7.04C5.41-7.33 5.07-7.57 4.67-7.75C4.27-7.93 3.83-8.02 3.36-8.02C3-8.02 2.67-7.96 2.37-7.86C2.07-7.76 1.81-7.61 1.59-7.42C1.37-7.23 1.20-7.01 1.07-6.76C0.95-6.50 0.89-6.22 0.89-5.93C0.89-5.64 0.94-5.39 1.03-5.17C1.13-4.95 1.25-4.76 1.40-4.60C1.56-4.44 1.73-4.30 1.92-4.19C2.11-4.08 2.30-3.98 2.48-3.90L3.61-3.41C3.80-3.32 3.97-3.24 4.13-3.16C4.29-3.08 4.43-2.99 4.54-2.89C4.66-2.79 4.75-2.67 4.82-2.53C4.89-2.39 4.92-2.22 4.92-2.02C4.92-1.63 4.78-1.32 4.49-1.09C4.20-0.85 3.80-0.73 3.28-0.73C2.87-0.73 2.47-0.82 2.09-1.00C1.71-1.18 1.38-1.42 1.10-1.72ZM8.88-7.03L8.88 0L9.89 0L9.89-7.03L12.26-7.03L12.26-7.87L6.50-7.87L6.50-7.03ZM16.30 0.14C16.79 0.14 17.25 0.05 17.66-0.14C18.07-0.34 18.43-0.61 18.73-0.97C19.03-1.32 19.26-1.75 19.42-2.26C19.59-2.77 19.67-3.34 19.67-3.97C19.67-4.60 19.59-5.16 19.42-5.66C19.26-6.16 19.03-6.58 18.73-6.93C18.43-7.28 18.07-7.55 17.66-7.73C17.25-7.92 16.79-8.02 16.30-8.02C15.80-8.02 15.35-7.92 14.93-7.74C14.52-7.56 14.17-7.29 13.87-6.94C13.58-6.59 13.35-6.17 13.18-5.67C13.02-5.17 12.94-4.60 12.94-3.97C12.94-3.34 13.02-2.77 13.18-2.26C13.35-1.75 13.58-1.32 13.87-0.97C14.17-0.61 14.52-0.34 14.93-0.14C15.35 0.05 15.80 0.14 16.30 0.14ZM16.30-0.73C15.94-0.73 15.63-0.81 15.34-0.96C15.06-1.11 14.81-1.33 14.61-1.61C14.41-1.90 14.25-2.24 14.14-2.63C14.02-3.03 13.97-3.48 13.97-3.97C13.97-4.46 14.02-4.90 14.14-5.29C14.25-5.68 14.41-6.02 14.61-6.29C14.81-6.56 15.06-6.77 15.34-6.92C15.63-7.07 15.94-7.14 16.30-7.14C16.65-7.14 16.97-7.07 17.25-6.92C17.53-6.77 17.78-6.56 17.98-6.29C18.19-6.02 18.34-5.68 18.46-5.29C18.57-4.90 18.62-4.46 18.62-3.97C18.62-3.48 18.57-3.03 18.46-2.63C18.34-2.24 18.19-1.90 17.98-1.61C17.78-1.33 17.53-1.11 17.25-0.96C16.97-0.81 16.65-0.73 16.30-0.73ZM22.36-4.14L22.36-7.07L23.68-7.07C24.29-7.07 24.76-6.96 25.09-6.76C25.42-6.55 25.58-6.18 25.58-5.66C25.58-5.15 25.42-4.77 25.09-4.52C24.76-4.27 24.29-4.14 23.68-4.14ZM25.68 0L26.81 0L24.82-3.43C25.35-3.57 25.78-3.82 26.10-4.19C26.42-4.56 26.58-5.05 26.58-5.66C26.58-6.07 26.51-6.42 26.38-6.70C26.24-6.98 26.05-7.20 25.81-7.38C25.56-7.56 25.27-7.68 24.93-7.76C24.59-7.83 24.22-7.87 23.82-7.87L21.36-7.87L21.36 0L22.36 0L22.36-3.32L23.78-3.32ZM28.33-7.87L28.33 0L32.99 0L32.99-0.85L29.33-0.85L29.33-3.71L32.32-3.71L32.32-4.56L29.33-4.56L29.33-7.03L32.87-7.03L32.87-7.87Z" transform="translate(-0.504, 8.016)"></path>
                </g>
            </g>
        </g>
    </g>
</svg>